<?xml version="1.0" encoding="utf-8"?>
<!-- Generator: Adobe Illustrator 16.0.0, SVG Export Plug-In . SVG Version: 6.00 Build 0)  -->
<!DOCTYPE svg PUBLIC "-//W3C//DTD SVG 1.1//EN" "http://www.w3.org/Graphics/SVG/1.1/DTD/svg11.dtd">
<svg version="1.1" id="Layer_1" xmlns:figma="http://www.figma.com/figma/ns"
	 xmlns="http://www.w3.org/2000/svg" xmlns:xlink="http://www.w3.org/1999/xlink" x="0px" y="0px" width="640px" height="480px"
	 viewBox="0 0 640 480" enable-background="new 0 0 640 480" xml:space="preserve">
<title>Logo</title>
<g>
	<path fill="#FF4400" d="M32.434,262.957h0.279l10.3-69.184h21.298v97.44H49.834v-69.878h-0.279l-10.301,69.878H24.778
		L13.642,222.31h-0.279v68.904H0v-97.44h21.298L32.434,262.957z"/>
	<path fill="#FF4400" d="M107.454,291.214c-0.833-2.507-1.391-4.036-1.391-11.971v-15.312c0-9.049-3.063-12.39-10.022-12.39h-5.29
		v39.672H75.439v-97.44h23.106c15.869,0,22.689,7.378,22.689,22.412v7.656c0,10.022-3.201,16.425-10.022,19.628v0.276
		c7.656,3.202,10.162,10.441,10.162,20.603v15.032c0,4.733,0.139,8.215,1.67,11.833H107.454z M90.75,207.693v29.929h5.985
		c5.708,0,9.188-2.506,9.188-10.3v-9.606c0-6.96-2.366-10.023-7.796-10.023H90.75z"/>
	<path fill="#FF4400" d="M146.146,276.459v14.755H131.39v-14.755H146.146z"/>
	<path fill="#FF4400" d="M206.834,291.214h-15.452l-2.645-17.68h-18.791l-2.645,17.68h-14.06l15.591-97.44h22.412L206.834,291.214z
		 M171.894,260.312h14.755l-7.238-49.278h-0.277L171.894,260.312z"/>
	<path fill="#FF4400" d="M213.928,193.773h15.313v83.521h25.194v13.919h-40.507V193.773z"/>
	<path fill="#FF4400" d="M276.424,234.837h21.02v13.921h-21.02v28.536h26.447v13.919h-41.76v-97.44h41.76v13.919h-26.447V234.837z"
		/>
	<path fill="#FF4400" d="M363.419,193.773l-16.008,47.328l17.121,50.112h-16.148l-12.387-38.559h-0.278l-12.528,38.559h-14.338
		l17.12-50.112l-16.007-47.328h15.868l11.414,35.914h0.278l11.693-35.914H363.419z"/>
	<path fill="#FF4400" d="M417.979,216.186v3.479c0,10.023-3.063,16.287-9.883,19.488v0.28c8.215,3.201,11.416,10.438,11.416,20.739
		v7.935c0,15.034-7.936,23.107-23.247,23.107h-24.082v-97.44h23.106C411.158,193.773,417.979,201.151,417.979,216.186z
		 M387.494,207.693v25.753h5.985c5.707,0,9.188-2.505,9.188-10.301v-5.429c0-6.96-2.365-10.023-7.795-10.023H387.494z
		 M387.494,247.365v29.93h8.771c5.149,0,7.933-2.367,7.933-9.606v-8.491c0-9.048-2.923-11.832-9.882-11.832H387.494z"/>
	<path fill="#FF4400" d="M444.005,234.837h21.019v13.921h-21.019v28.536h26.446v13.919h-41.76v-97.44h41.76v13.919h-26.446V234.837z
		"/>
	<path fill="#FF4400" d="M529.469,291.214h-15.453l-2.644-17.68h-18.793l-2.645,17.68h-14.06l15.591-97.44h22.411L529.469,291.214z
		 M494.527,260.312h14.755l-7.238-49.278h-0.276L494.527,260.312z"/>
	<path fill="#FF4400" d="M568.576,291.214c-0.835-2.507-1.393-4.036-1.393-11.971v-15.312c0-9.049-3.062-12.39-10.021-12.39h-5.29
		v39.672H536.56v-97.44h23.107c15.869,0,22.689,7.378,22.689,22.412v7.656c0,10.022-3.199,16.425-10.021,19.628v0.276
		c7.656,3.202,10.162,10.441,10.162,20.603v15.032c0,4.733,0.139,8.215,1.669,11.833H568.576z M551.873,207.693v29.929h5.985
		c5.708,0,9.188-2.506,9.188-10.3v-9.606c0-6.96-2.366-10.023-7.797-10.023H551.873z"/>
	<path fill="#FF4400" d="M592.513,193.773h24.222c15.312,0,22.83,8.491,22.83,24.081v49.277c0,15.591-7.518,24.082-22.83,24.082
		h-24.222V193.773z M607.827,207.693v69.602h8.629c4.872,0,7.797-2.507,7.797-9.466V217.16c0-6.961-2.925-9.467-7.797-9.467H607.827
		z"/>
</g>
</svg>
