<?xml version="1.0" encoding="utf-8"?>
<!-- Generator: Adobe Illustrator 16.0.0, SVG Export Plug-In . SVG Version: 6.00 Build 0)  -->
<!DOCTYPE svg PUBLIC "-//W3C//DTD SVG 1.1//EN" "http://www.w3.org/Graphics/SVG/1.1/DTD/svg11.dtd">
<svg version="1.1" id="Layer_1" xmlns="http://www.w3.org/2000/svg" xmlns:xlink="http://www.w3.org/1999/xlink" x="0px" y="0px"
	 width="640px" height="480px" viewBox="0 0 640 480" enable-background="new 0 0 640 480" xml:space="preserve">
<g>
	<path fill="#FF4400" fill-opacity="0.3" d="M439.854,31.545H178.701v175.718h261.153V31.545z M170.935,16.012h0.202h276.482
		c4.291,0,7.769,3.479,7.769,7.766v0.203v191.048c0,4.287-3.478,7.766-7.769,7.766h-0.202H170.935c-4.291,0-7.766-3.479-7.766-7.766
		v-0.202V23.778C163.168,19.491,166.644,16.012,170.935,16.012z"/>
	<path fill="#FF4400" fill-opacity="0.3" d="M217.243,170.779c-2.66,3.328-7.536,3.874-10.865,1.215
		c-3.329-2.659-3.876-7.541-1.216-10.868l27.185-33.982c2.527-3.163,7.062-3.813,10.365-1.584l0.02-0.019l29.668,20.044
		l37.343-52.106c2.497-3.476,7.354-4.288,10.832-1.795c0.741,0.528,1.36,1.161,1.85,1.876l22.562,27.825l43.547-57.219
		c2.587-3.399,7.456-4.042,10.856-1.455c3.398,2.588,4.042,7.459,1.455,10.857l-49.511,65.053c-0.358,0.474-0.782,0.913-1.269,1.301
		c-3.31,2.697-8.197,2.194-10.891-1.119l-22.723-28.031l-35.83,49.985c-2.438,3.408-7.166,4.271-10.655,1.911l-30.01-20.279
		L217.243,170.779z"/>
	<path fill-rule="evenodd" clip-rule="evenodd" fill="#FF4400" d="M549.653,51.368c27.556,0,49.899,24.206,49.899,54.07
		c0,29.852-22.344,54.061-49.899,54.061c-27.55,0-49.895-24.209-49.895-54.061C499.759,75.574,522.104,51.368,549.653,51.368"/>
	<path fill-rule="evenodd" clip-rule="evenodd" fill="#FF4400" d="M506.919,230.13c-0.906-48.432-36.123,16.76-93.706-93.248
		c-4.542-8.672,14.135-39.431,39.646-5.337c36.978,49.413,42.375,33.958,101.854,33.958c73.979,0,71.883,31.949,79.078,102.271
		c0.105,4.368,12.945,30.619-33.474,32.745v-32.745h-0.042v-46.362l-0.011-0.14c-0.288-1.771-1.825-3.128-3.672-3.128
		c-2.052,0-3.725,1.674-3.725,3.726v229.275c-3.486,4.728-9.096,7.813-15.401,7.813h-23.32V308.372c0-2.049-1.67-3.724-3.724-3.724
		c-2.052,0-3.724,1.675-3.724,3.724v150.587h-23.302c-6.313,0-11.933-3.094-15.422-7.838V297.523
		C507.975,273.957,509.103,254.884,506.919,230.13"/>
	<path fill-rule="evenodd" clip-rule="evenodd" fill="#FF4400" d="M130.302,290.708c10.595-0.483,31.022-4.199,27.448-25.802
		c-4.075-24.668-4.014-98.802-31.216-119.138c-8.455,14.092-22.261,24.066-38.296,26.552h0.581l-4.21,7.281l-4.2,7.282l-4.2-7.282
		l-4.21-7.281h0.592c-16.039-2.477-29.856-12.452-38.308-26.543C7.08,166.119,7.149,240.248,3.074,264.906
		c-3.577,21.592,16.837,25.299,27.44,25.794v-64.559c0-2.051,1.669-3.725,3.724-3.725c2.051,0,3.724,1.674,3.724,3.725v75.653
		V455.39c3.486,4.745,9.107,7.835,15.419,7.835h23.303V312.644c0-2.054,1.67-3.725,3.724-3.725c2.051,0,3.724,1.671,3.724,3.725
		v150.581h23.32c6.306,0,11.913-3.079,15.402-7.807V226.142c0-2.051,1.67-3.725,3.724-3.725c2.051,0,3.724,1.674,3.724,3.725
		V290.708z"/>
	<path fill-rule="evenodd" clip-rule="evenodd" fill="#FF4400" d="M80.408,56.115c27.553,0,49.894,24.207,49.894,54.071
		c0,29.85-22.341,54.057-49.894,54.057c-27.556,0-49.894-24.207-49.894-54.057C30.514,80.321,52.852,56.115,80.408,56.115"/>
</g>
</svg>
