<?xml version="1.0" encoding="utf-8"?>
<!-- Generator: Adobe Illustrator 16.0.0, SVG Export Plug-In . SVG Version: 6.00 Build 0)  -->
<!DOCTYPE svg PUBLIC "-//W3C//DTD SVG 1.1//EN" "http://www.w3.org/Graphics/SVG/1.1/DTD/svg11.dtd">
<svg version="1.1" id="Layer_1" xmlns="http://www.w3.org/2000/svg" xmlns:xlink="http://www.w3.org/1999/xlink" x="0px" y="0px"
	 width="640px" height="480px" viewBox="0 0 640 480" enable-background="new 0 0 640 480" xml:space="preserve">
<g>
	<g>
		<g>
			<path opacity="0.5" fill="#FF4400" d="M159.842,313.913c-3.578,1.079-7.365-0.94-8.445-4.516
				c-1.079-3.577,0.941-7.364,4.514-8.443l160.526-48.835c3.576-1.079,7.364,0.94,8.443,4.513c1.025,3.405-0.755,7.012-4.021,8.276
				c-0.468,0.206-0.945,0.354-1.425,0.453L159.842,313.913z"/>
		</g>
		<g>
			<path opacity="0.5" fill="#FF4400" d="M480.726,304.082c3.561,1.139,5.515,4.96,4.375,8.521
				c-1.139,3.558-4.961,5.515-8.521,4.375l-159.442-51.561c-2.217-0.332-4.221-1.759-5.199-3.96
				c-0.395-0.888-0.578-1.818-0.578-2.737h-0.03v-26.749c0-3.751,3.044-6.794,6.794-6.794c3.754,0,6.794,3.042,6.794,6.794v21.717
				L480.726,304.082z"/>
		</g>
		<g>
			<polygon opacity="0.5" fill-rule="evenodd" clip-rule="evenodd" fill="#FF4400" points="336.014,3.982 420.097,3.982 
				420.097,52.394 399.332,52.394 389.48,61.31 371.706,77.391 372.562,61.31 373.041,52.394 336.014,52.394 			"/>
		</g>
		<g>
			<polygon opacity="0.5" fill-rule="evenodd" clip-rule="evenodd" fill="#FF4400" points="129.911,264.913 45.831,264.913 
				45.831,313.326 66.592,313.326 76.446,322.238 94.219,338.325 93.362,322.238 92.886,313.326 129.911,313.326 			"/>
		</g>
		<g>
			<polygon opacity="0.5" fill-rule="evenodd" clip-rule="evenodd" fill="#FF4400" points="510.407,274.922 594.488,274.922 
				594.488,323.332 573.729,323.332 563.875,332.247 546.103,348.334 546.958,332.247 547.433,323.332 510.407,323.332 			"/>
		</g>
		<path fill-rule="evenodd" clip-rule="evenodd" fill="#FF4400" d="M318.125,74.711c19.178,0,34.723,16.848,34.723,37.625
			c0,20.779-15.545,37.62-34.723,37.62c-19.174,0-34.723-16.841-34.723-37.62C283.402,91.56,298.951,74.711,318.125,74.711"/>
		<path fill-rule="evenodd" clip-rule="evenodd" fill="#FF4400" d="M362.97,210.856c12.195-8.158,19.785-17.018,19.785-32.311
			c0-14.645-13.866-31.825-34.229-39.567c-7.172,9.585-18.118,15.724-30.4,15.724c-12.278,0-23.242-6.139-30.406-15.738
			c-20.362,7.559-34.222,22.44-34.222,39.582c0,12.698,7.587,24.153,19.785,32.311H362.97z"/>
		<path fill-rule="evenodd" clip-rule="evenodd" fill="#FF4400" d="M138.918,337.401c19.173,0,34.719,16.849,34.719,37.625
			c0,20.778-15.546,37.62-34.719,37.62c-19.178,0-34.722-16.842-34.722-37.62C104.196,354.25,119.74,337.401,138.918,337.401"/>
		<path fill-rule="evenodd" clip-rule="evenodd" fill="#FF4400" d="M183.76,473.544c12.195-8.156,19.784-17.016,19.784-32.309
			c0-14.647-13.866-31.825-34.228-39.57c-7.172,9.586-18.119,15.727-30.398,15.727c-12.282,0-23.243-6.141-30.41-15.74
			c-20.362,7.558-34.22,22.442-34.22,39.584c0,12.695,7.589,24.152,19.783,32.309H183.76z"/>
		<path fill-rule="evenodd" clip-rule="evenodd" fill="#FF4400" d="M497.327,337.401c19.175,0,34.723,16.849,34.723,37.625
			c0,20.778-15.548,37.62-34.723,37.62s-34.723-16.842-34.723-37.62C462.604,354.25,478.152,337.401,497.327,337.401"/>
		<path fill-rule="evenodd" clip-rule="evenodd" fill="#FF4400" d="M542.169,473.544c12.2-8.156,19.788-17.016,19.788-32.309
			c0-14.647-13.869-31.825-34.232-39.57c-7.171,9.586-18.118,15.727-30.397,15.727c-12.282,0-23.243-6.141-30.407-15.74
			c-20.36,7.558-34.22,22.442-34.22,39.584c0,12.695,7.585,24.152,19.78,32.309H542.169z"/>
	</g>
</g>
</svg>
