<?xml version="1.0" encoding="utf-8"?>
<!-- Generator: Adobe Illustrator 16.0.0, SVG Export Plug-In . SVG Version: 6.00 Build 0)  -->
<!DOCTYPE svg PUBLIC "-//W3C//DTD SVG 1.1//EN" "http://www.w3.org/Graphics/SVG/1.1/DTD/svg11.dtd">
<svg version="1.1" id="Layer_1" xmlns="http://www.w3.org/2000/svg" xmlns:xlink="http://www.w3.org/1999/xlink" x="0px" y="0px"
	 width="640px" height="480px" viewBox="0 0 640 480" enable-background="new 0 0 640 480" xml:space="preserve">
<g>
	<path fill-rule="evenodd" clip-rule="evenodd" fill="#FF4400" d="M179.018,4c32.304,0,58.507,28.393,58.507,63.406
		c0,35.009-26.204,63.389-58.507,63.389c-32.316,0-58.523-28.379-58.523-63.389C120.495,32.393,146.702,4,179.018,4"/>
	<path fill-rule="evenodd" clip-rule="evenodd" fill="#FF4400" fill-opacity="0.3" d="M457.439,4
		c32.309,0,58.51,28.393,58.51,63.406c0,35.009-26.201,63.389-58.51,63.389c-32.316,0-58.519-28.379-58.519-63.389
		C398.921,32.393,425.123,4,457.439,4"/>
	<path fill-rule="evenodd" clip-rule="evenodd" fill="#FF4400" d="M235.057,473.549V216.892
		c1.057-56.796,97.552-41.255,84.829-198.71c-0.922-11.44-40.38-25.955-46.489,7.969c-9.913,55.201-24.042,112.393-94.379,112.393
		c-68.703,0-80.901-59.7-90.382-112.393C82.539-7.774,43.079,6.741,42.157,18.181c-12.718,157.455,83.56,141.915,84.617,198.71
		v88.707v167.95h49.317V301.743c0-2.716,2.215-4.926,4.931-4.926c2.713,0,4.929,2.21,4.929,4.926v171.806H235.057z"/>
	<path fill-rule="evenodd" clip-rule="evenodd" fill="#FF4400" fill-opacity="0.3" d="M513.479,473.549V216.892
		c1.062-56.796,97.549-41.255,84.825-198.71c-0.922-11.44-40.38-25.955-46.485,7.969c-9.914,55.201-24.046,112.393-94.38,112.393
		c-68.701,0-80.904-59.7-90.384-112.393c-6.091-33.924-45.552-19.409-46.471-7.969c-12.726,157.455,83.556,141.915,84.618,198.71
		v88.707v167.95h49.316V301.743c0-2.716,2.207-4.926,4.928-4.926c2.713,0,4.927,2.21,4.927,4.926v171.806H513.479z"/>
	<rect x="309.966" y="254.148" fill="#FF4400" fill-opacity="0.3" width="20.556" height="53.935"/>
	<rect x="293.273" y="270.833" fill="#FF4400" fill-opacity="0.3" width="53.934" height="20.553"/>
</g>
</svg>
