<?xml version="1.0" encoding="utf-8"?>
<!-- Generator: Adobe Illustrator 16.0.0, SVG Export Plug-In . SVG Version: 6.00 Build 0)  -->
<!DOCTYPE svg PUBLIC "-//W3C//DTD SVG 1.1//EN" "http://www.w3.org/Graphics/SVG/1.1/DTD/svg11.dtd">
<svg version="1.1" id="Layer_1" xmlns="http://www.w3.org/2000/svg" xmlns:xlink="http://www.w3.org/1999/xlink" x="0px" y="0px"
	 width="640px" height="480px" viewBox="0 0 640 480" enable-background="new 0 0 640 480" xml:space="preserve">
<g>
	<path fill="#FF4400" fill-opacity="0.3" d="M243.642,69.938L229.837,31.46L195.77,71.962L243.642,69.938z M296.429,217.156
		L248.74,84.16l-68.732,2.903l-16.329,0.697l10.541-12.533l52.667-62.618L234.969,3l4.228,11.812l1.835,5.134l-0.023,0.005
		L260.5,74.308l49.486,137.997L296.429,217.156z"/>
	<polygon fill-rule="evenodd" clip-rule="evenodd" fill="#FF4400" fill-opacity="0.3" points="461.181,27.887 550.646,27.887 
		550.646,79.396 528.553,79.396 518.07,88.882 499.158,105.999 500.069,88.882 500.578,79.396 461.181,79.396 	"/>
	<path fill-rule="evenodd" clip-rule="evenodd" fill="#FF4400" d="M176.399,97.062c-25.65,0-46.443,22.532-46.443,50.331
		c0,27.787,20.793,50.322,46.443,50.322s46.446-22.535,46.446-50.322C222.845,119.594,202.049,97.062,176.399,97.062"/>
	<path fill-rule="evenodd" clip-rule="evenodd" fill="#FF4400" d="M216.183,263.46c0.841-45.081,33.62,15.603,87.223-86.796
		c4.231-8.074-13.158-36.706-36.906-4.968c-34.416,45.996-39.441,31.609-94.805,31.609c-68.864,0-66.911,29.739-73.609,95.198
		c-0.098,4.066-12.049,28.501,31.157,30.478v-30.478h0.039v-43.154l0.01-0.132c0.27-1.649,1.696-2.91,3.417-2.91
		c1.912,0,3.466,1.557,3.466,3.466v213.417c3.248,4.403,8.47,7.272,14.337,7.272h21.708v-140.17c0-1.907,1.557-3.467,3.466-3.467
		c1.91,0,3.467,1.56,3.467,3.467v140.17h21.692c5.875,0,11.107-2.877,14.35-7.293V326.196
		C215.194,304.26,214.149,286.503,216.183,263.46"/>
	<path fill-rule="evenodd" clip-rule="evenodd" fill="#FF4400" d="M391.908,263.46c-0.845-45.081-33.623,15.603-87.226-86.796
		c-4.226-8.074,13.158-36.706,36.906-4.968c34.416,45.996,39.441,31.609,94.806,31.609c68.863,0,66.91,29.739,73.609,95.198
		c0.098,4.066,12.049,28.501-31.157,30.478v-30.478h-0.039v-43.154l-0.01-0.132c-0.271-1.649-1.696-2.91-3.418-2.91
		c-1.912,0-3.467,1.557-3.467,3.466v213.417c-3.247,4.403-8.467,7.272-14.337,7.272h-21.704v-140.17c0-1.907-1.56-3.467-3.47-3.467
		c-1.912,0-3.466,1.56-3.466,3.467v140.17h-21.692c-5.875,0-11.107-2.877-14.35-7.293V326.196
		C392.894,304.26,393.941,286.503,391.908,263.46"/>
	<path fill-rule="evenodd" clip-rule="evenodd" fill="#FF4400" d="M427.491,97.062c-25.649,0-46.443,22.532-46.443,50.331
		c0,27.787,20.794,50.322,46.443,50.322c25.647,0,46.444-22.535,46.444-50.322C473.936,119.594,453.139,97.062,427.491,97.062"/>
</g>
</svg>
