<?xml version="1.0" encoding="utf-8"?>
<!-- Generator: Adobe Illustrator 16.0.0, SVG Export Plug-In . SVG Version: 6.00 Build 0)  -->
<!DOCTYPE svg PUBLIC "-//W3C//DTD SVG 1.1//EN" "http://www.w3.org/Graphics/SVG/1.1/DTD/svg11.dtd">
<svg version="1.1" id="Layer_1" xmlns="http://www.w3.org/2000/svg" xmlns:xlink="http://www.w3.org/1999/xlink" x="0px" y="0px"
	 width="640px" height="480px" viewBox="0 0 640 480" enable-background="new 0 0 640 480" xml:space="preserve">
<g>
	<path fill-rule="evenodd" clip-rule="evenodd" fill="#FF4400" d="M321.52,3c25.938,0,46.963,22.784,46.963,50.883
		c0,28.089-21.025,50.87-46.963,50.87c-25.933,0-46.958-22.781-46.958-50.87C274.562,25.784,295.587,3,321.52,3"/>
	<path fill-rule="evenodd" clip-rule="evenodd" fill="#FF4400" d="M382.163,187.103c16.49-11.035,26.754-23.011,26.754-43.69
		c0-19.807-18.754-43.033-46.285-53.507c-9.702,12.962-24.504,21.261-41.112,21.261c-16.606,0-31.426-8.299-41.12-21.282
		c-27.534,10.216-46.274,30.352-46.274,53.528c0,17.163,10.264,32.656,26.753,43.69H382.163z"/>
	<path fill="#FF4400" fill-opacity="0.3" d="M232.542,229.961c-1.007-4.694,1.977-9.337,6.671-10.345
		c4.692-1.006,9.333,1.976,10.34,6.667l5.198,23.941l23.851-10.761c4.377-1.964,9.546-0.02,11.513,4.359
		c1.965,4.376,0.017,9.543-4.357,11.507l-33.583,15.146c-0.564,0.267-1.177,0.464-1.808,0.604
		c-4.695,1.008-9.338-1.977-10.344-6.672L232.542,229.961z"/>
	<path fill="#FF4400" fill-opacity="0.3" d="M299.026,191.47l-35.303,61.147v0.027l-37.949,65.703l-0.125-0.289l-0.129-0.276
		l-0.129-0.275l-0.039-0.081l-0.101-0.208l-0.128-0.275l-0.137-0.274l-0.139-0.278l-0.098-0.189l-0.042-0.086l-0.135-0.277
		l-0.14-0.267l-0.15-0.275l-0.137-0.279L224.125,315l-0.128-0.248l-0.147-0.27l-0.296-0.533v-0.01l-0.07-0.131l-0.08-0.137
		l-0.147-0.267l-0.306-0.523l-0.15-0.245l-0.01-0.024l-0.474-0.776l-0.158-0.267l-0.059-0.088l-0.098-0.172l-0.17-0.255
		l-0.157-0.258l-0.167-0.258l-0.129-0.186l-0.039-0.062l-0.166-0.253l-0.172-0.248l-0.168-0.255l-0.166-0.249l-0.039-0.05
		l-0.139-0.198l-0.523-0.738l-0.108-0.152l-0.07-0.096l-0.177-0.248l-0.179-0.236l-0.366-0.483l-0.011-0.013l-0.167-0.226
		l-0.188-0.249l-0.188-0.235l-0.188-0.227l-0.081-0.108l-0.109-0.127l-0.188-0.239l-0.385-0.462L217.399,305l-0.022-0.031
		l-0.198-0.229l-0.195-0.235l-0.188-0.227l-0.198-0.217l-0.061-0.069l-0.138-0.16l-0.207-0.228l-0.198-0.217l-0.346-0.376
		l-0.059-0.07l-0.198-0.214l-0.206-0.217l-0.208-0.222l33.71-58.356l0.011,0.01l30.291-52.472H299.026z M417.898,370.146H321.52
		h-96.455l0.117-0.248l0.129-0.257l0.042-0.081l0.076-0.177l0.119-0.248l0.109-0.255l0.118-0.257l0.118-0.257l0.031-0.051
		l0.081-0.204l0.12-0.258l0.106-0.261l0.109-0.254l0.108-0.267l0.01-0.021l0.098-0.236l0.111-0.257l0.109-0.268l0.098-0.264
		l0.107-0.248v-0.009l0.103-0.271l0.097-0.263l0.098-0.262l0.101-0.264l0.087-0.229l0.011-0.039l0.098-0.265l0.09-0.27l0.097-0.273
		l0.09-0.266l0.07-0.19l0.018-0.077l0.101-0.267l0.087-0.279l0.081-0.266l0.087-0.274l0.059-0.161l0.031-0.109l0.078-0.274
		l0.089-0.279l0.081-0.273l0.237-0.818l0.076-0.28l0.07-0.275l0.081-0.288l0.028-0.087l0.04-0.189l0.071-0.276l0.065-0.275
		l0.338-1.414l0.059-0.277l0.13-0.57l0.048-0.292l0.059-0.284l0.059-0.273l0.05-0.285h0.011l0.048-0.292l0.049-0.295l0.049-0.288
		l0.052-0.286l0.048-0.245v-0.039l0.049-0.286l0.048-0.294l0.039-0.289h91.082h91.014
		C413.464,358.916,415.3,364.777,417.898,370.146z M364.053,191.47l30.292,52.472l0.013-0.01l33.669,58.499
		c-4.397,4.623-8.063,10.057-10.778,16.092l-37.929-65.878v-0.027l-35.298-61.147H364.053z"/>
	<path fill-rule="evenodd" clip-rule="evenodd" fill="#FF4400" d="M178.283,292.617c25.934,0,46.958,22.787,46.958,50.882
		c0,28.088-21.024,50.87-46.958,50.87c-25.936,0-46.958-22.782-46.958-50.87C131.325,315.404,152.347,292.617,178.283,292.617"/>
	<path fill-rule="evenodd" clip-rule="evenodd" fill="#FF4400" d="M238.924,476.722c16.489-11.037,26.758-23.013,26.758-43.692
		c0-19.809-18.755-43.037-46.29-53.506c-9.7,12.96-24.503,21.26-41.109,21.26c-16.608,0-31.428-8.3-41.118-21.28
		c-27.538,10.213-46.279,30.35-46.279,53.526c0,17.162,10.264,32.655,26.753,43.692H238.924z"/>
	<path fill-rule="evenodd" clip-rule="evenodd" fill="#FF4400" d="M464.75,292.617c25.933,0,46.957,22.787,46.957,50.882
		c0,28.088-21.024,50.87-46.957,50.87c-25.936,0-46.959-22.782-46.959-50.87C417.791,315.404,438.814,292.617,464.75,292.617"/>
	<path fill-rule="evenodd" clip-rule="evenodd" fill="#FF4400" d="M525.39,476.722c16.491-11.037,26.755-23.013,26.755-43.692
		c0-19.809-18.752-43.037-46.285-53.506c-9.701,12.96-24.503,21.26-41.109,21.26c-16.607,0-31.429-8.3-41.121-21.28
		c-27.535,10.213-46.275,30.35-46.275,53.526c0,17.162,10.266,32.655,26.755,43.692H525.39z"/>
	<path fill="#FF4400" fill-opacity="0.3" d="M411.931,234.535c4.347,2.035,6.242,7.213,4.207,11.562
		c-2.034,4.343-7.221,6.241-11.566,4.206l-22.208-10.335l-5.848,25.503c-1.089,4.672-5.764,7.605-10.438,6.526
		c-4.675-1.086-7.615-5.758-6.529-10.428l8.251-35.906c0.124-0.613,0.335-1.216,0.61-1.809c2.035-4.345,7.215-6.236,11.561-4.199
		L411.931,234.535z"/>
	<path fill="#FF4400" fill-opacity="0.3" d="M313.971,389.114c-4.011,2.627-9.412,1.501-12.042-2.519
		c-2.618-4.021-1.503-9.427,2.52-12.042l20.489-13.427l-18.594-18.415c-3.398-3.382-3.435-8.903-0.048-12.302
		c3.378-3.409,8.902-3.44,12.3-0.06l26.171,25.926c0.452,0.437,0.858,0.927,1.216,1.47c2.618,4.022,1.498,9.426-2.521,12.044
		L313.971,389.114z"/>
</g>
</svg>
