<?xml version="1.0" encoding="utf-8"?>
<!-- Generator: Adobe Illustrator 16.0.0, SVG Export Plug-In . SVG Version: 6.00 Build 0)  -->
<!DOCTYPE svg PUBLIC "-//W3C//DTD SVG 1.1//EN" "http://www.w3.org/Graphics/SVG/1.1/DTD/svg11.dtd">
<svg version="1.1" id="Layer_1" xmlns="http://www.w3.org/2000/svg" xmlns:xlink="http://www.w3.org/1999/xlink" x="0px" y="0px"
	 width="640px" height="480px" viewBox="0 0 640 480" enable-background="new 0 0 640 480" xml:space="preserve">
<g>
	<g>
		<path fill-rule="evenodd" clip-rule="evenodd" fill="#FF4400" d="M317.096,227.211c27.867,0,50.467,24.486,50.467,54.692
			c0,30.197-22.601,54.684-50.467,54.684c-27.872,0-50.471-24.486-50.471-54.684C266.625,251.697,289.225,227.211,317.096,227.211"
			/>
		<path fill-rule="evenodd" clip-rule="evenodd" fill="#FF4400" d="M317.254,345.426l5.504-0.036
			c76.434,0,80.38,30.438,86.849,96.967h-35.806v-34.338l-0.013-0.154c-0.325-1.985-2.04-3.506-4.112-3.506
			c-2.301,0-4.172,1.877-4.172,4.171v33.827h-96.5v-33.827c0-2.294-1.874-4.171-4.174-4.171c-2.069,0-3.786,1.521-4.113,3.506
			l-0.01,0.154v34.338h-35.805c6.467-66.528,10.416-96.967,86.849-96.967L317.254,345.426z"/>
		<path fill-rule="evenodd" clip-rule="evenodd" fill="#FF4400" d="M182.823,227.211c-27.868,0-50.468,24.486-50.468,54.692
			c0,30.197,22.6,54.684,50.468,54.684c27.871,0,50.471-24.486,50.471-54.684C233.294,251.697,210.694,227.211,182.823,227.211"/>
		<path fill-rule="evenodd" clip-rule="evenodd" fill="#FF4400" d="M182.665,345.426l-5.503-0.036
			c-76.434,0-80.38,30.438-86.85,96.967h35.81v-34.338l0.009-0.154c0.325-1.985,2.041-3.506,4.113-3.506
			c2.301,0,4.172,1.877,4.172,4.171v33.827h80.962c4.206-43.118,7.34-71.076,29.822-85.41
			c-12.212-7.791-30.129-11.557-57.031-11.557L182.665,345.426z"/>
		<path fill="#FF4400" d="M65.618,474.973c-4.804,0-8.703-3.896-8.703-8.703c0-4.804,3.899-8.703,8.703-8.703h506.467
			c4.805,0,8.7,3.899,8.7,8.703c0,4.807-3.896,8.703-8.7,8.703H65.618z"/>
		<path fill-rule="evenodd" clip-rule="evenodd" fill="#FF4400" d="M457.649,227.211c27.868,0,50.472,24.486,50.472,54.692
			c0,30.197-22.604,54.684-50.472,54.684s-50.468-24.486-50.468-54.684C407.182,251.697,429.781,227.211,457.649,227.211"/>
		<path fill-rule="evenodd" clip-rule="evenodd" fill="#FF4400" d="M457.811,345.426l5.501-0.036
			c76.437,0,80.383,30.438,86.855,96.967h-35.812v-34.338l-0.01-0.154c-0.327-1.985-2.043-3.506-4.111-3.506
			c-2.302,0-4.176,1.877-4.176,4.171v33.827h-80.962c-4.202-43.118-7.337-71.076-29.819-85.41
			c12.213-7.791,30.126-11.557,57.027-11.557L457.811,345.426z"/>
		<path fill="#FF4400" fill-opacity="0.3" d="M534.566,21.401H242.015v150.087h152.797v0.027c1.304,0,2.633,0.296,3.877,0.918
			c4.28,2.14,6.018,7.351,3.878,11.632l-10.373,20.724l51.636-31.655c1.431-1.038,3.184-1.646,5.092-1.646h85.645V21.401z
			 M233.312,4h0.229H543.27c4.804,0,8.699,3.897,8.699,8.7v0.226v167.262c0,4.804-3.896,8.701-8.699,8.701h-0.226h-91.719
			l-75.93,46.561c-4.085,2.487-9.439,1.192-11.923-2.89c-1.68-2.763-1.643-6.108-0.168-8.748l17.458-34.923H233.312
			c-4.804,0-8.703-3.897-8.703-8.701v-0.226V12.7C224.609,7.897,228.508,4,233.312,4z"/>
	</g>
	<g opacity="0.6">
		<g>
			<path fill="#FF4400" d="M271.283,102.754l-12.637-42.546h10.453l7.551,29.003h0.176l7.551-29.003h9.542l-12.636,42.546v21.094
				h-10.001V102.754z"/>
			<path fill="#FF4400" d="M307.941,87.028h13.732v9.09h-13.732v18.64h17.279v9.09h-27.28v-63.64h27.28v9.093h-17.279V87.028z"/>
			<path fill="#FF4400" d="M344.874,59.482c9.725,0,14.724,5.818,14.724,16.001v1.998h-9.456v-2.634
				c0-4.545-1.812-6.275-4.995-6.275s-5.006,1.73-5.006,6.275c0,4.633,2.002,8.091,8.553,13.816
				c8.364,7.367,11.001,12.641,11.001,19.91c0,10.187-5.096,16.004-14.91,16.004c-9.824,0-14.915-5.817-14.915-16.004v-3.909h9.457
				v4.545c0,4.548,2.002,6.185,5.186,6.185c3.181,0,5.182-1.637,5.182-6.185c0-4.635-2.001-8.091-8.552-13.817
				c-8.364-7.365-11.001-12.637-11.001-19.909C330.141,65.3,335.146,59.482,344.874,59.482z"/>
			<path fill="#FF4400" d="M364.978,123.848v-9.638h9.639v8.639l-4.361,10.089h-4.092l2.637-9.09H364.978z"/>
			<path fill="#FF4400" d="M428.36,123.848H418.27l-1.725-11.544h-12.274l-1.726,11.544h-9.186l10.187-63.64h14.634L428.36,123.848z
				 M405.544,103.664h9.638l-4.729-32.182h-0.187L405.544,103.664z"/>
			<path fill="#FF4400" d="M442.114,77.755h-0.18v46.093h-9v-63.64h12.546l10.092,38.093h0.185V60.208h8.904v63.64h-10.273
				L442.114,77.755z"/>
			<path fill="#FF4400" d="M471.859,60.208h15.816c10.001,0,14.91,5.547,14.91,15.73v32.183c0,10.183-4.909,15.727-14.91,15.727
				h-15.816V60.208z M481.859,69.301v45.457h5.64c3.175,0,5.087-1.637,5.087-6.185V75.483c0-4.545-1.912-6.182-5.087-6.182H481.859z
				"/>
			<path fill="#FF4400" d="M510.248,109.758l-1.273-23.001V60.208h10.002v26.549l-1.273,23.001H510.248z M518.8,114.21v9.638h-9.639
				v-9.638H518.8z"/>
		</g>
	</g>
</g>
</svg>
